<mxfile host="65bd71144e">
    <diagram id="xnnl0HcBTr_XDiGGqrlv" name="Page-1">
        <mxGraphModel dx="520" dy="477" grid="1" gridSize="10" guides="1" tooltips="1" connect="1" arrows="1" fold="1" page="1" pageScale="1" pageWidth="850" pageHeight="1100" math="0" shadow="0">
            <root>
                <mxCell id="0"/>
                <mxCell id="1" parent="0"/>
                <mxCell id="2" value="" style="whiteSpace=wrap;html=1;aspect=fixed;" vertex="1" parent="1">
                    <mxGeometry x="40" y="70" width="410" height="410" as="geometry"/>
                </mxCell>
                <mxCell id="3" value="&lt;font color=&quot;#ffffff&quot; style=&quot;font-size: 15px&quot;&gt;Guessing Game&lt;/font&gt;" style="rounded=0;whiteSpace=wrap;html=1;fillColor=#A54FE7;strokeColor=#7637A6;align=left;" vertex="1" parent="1">
                    <mxGeometry x="40" y="50" width="410" height="60" as="geometry"/>
                </mxCell>
                <mxCell id="4" value="" style="shape=cube;whiteSpace=wrap;html=1;boundedLbl=1;backgroundOutline=1;darkOpacity=0.05;darkOpacity2=0.1;labelBackgroundColor=#7637A6;fontSize=15;fontColor=#FFFFFF;strokeColor=#7637A6;fillColor=#FFFFFF;" vertex="1" parent="1">
                    <mxGeometry x="70" y="120" width="60" height="50" as="geometry"/>
                </mxCell>
                <mxCell id="5" value="" style="ellipse;whiteSpace=wrap;html=1;aspect=fixed;labelBackgroundColor=#7637A6;fontSize=15;fontColor=#FFFFFF;strokeColor=#7637A6;fillColor=#000000;" vertex="1" parent="1">
                    <mxGeometry x="110" y="150" width="10" height="10" as="geometry"/>
                </mxCell>
                <mxCell id="6" value="" style="ellipse;whiteSpace=wrap;html=1;aspect=fixed;labelBackgroundColor=#7637A6;fontSize=15;fontColor=#FFFFFF;strokeColor=#7637A6;fillColor=#000000;" vertex="1" parent="1">
                    <mxGeometry x="100" y="130" width="10" height="10" as="geometry"/>
                </mxCell>
                <mxCell id="7" value="" style="ellipse;whiteSpace=wrap;html=1;aspect=fixed;labelBackgroundColor=#7637A6;fontSize=15;fontColor=#FFFFFF;strokeColor=#7637A6;fillColor=#000000;" vertex="1" parent="1">
                    <mxGeometry x="95" y="120" width="10" height="10" as="geometry"/>
                </mxCell>
                <mxCell id="9" value="" style="ellipse;whiteSpace=wrap;html=1;aspect=fixed;labelBackgroundColor=#7637A6;fontSize=15;fontColor=#FFFFFF;strokeColor=#7637A6;fillColor=#000000;" vertex="1" parent="1">
                    <mxGeometry x="70" y="140" width="10" height="10" as="geometry"/>
                </mxCell>
                <mxCell id="10" value="" style="ellipse;whiteSpace=wrap;html=1;aspect=fixed;labelBackgroundColor=#7637A6;fontSize=15;fontColor=#FFFFFF;strokeColor=#7637A6;fillColor=#000000;" vertex="1" parent="1">
                    <mxGeometry x="80" y="140" width="10" height="10" as="geometry"/>
                </mxCell>
                <mxCell id="11" value="" style="ellipse;whiteSpace=wrap;html=1;aspect=fixed;labelBackgroundColor=#7637A6;fontSize=15;fontColor=#FFFFFF;strokeColor=#7637A6;fillColor=#000000;" vertex="1" parent="1">
                    <mxGeometry x="70" y="130" width="10" height="10" as="geometry"/>
                </mxCell>
                <mxCell id="23" value="&lt;font style=&quot;font-size: 10px&quot;&gt;?&lt;br&gt;Guess the number&lt;/font&gt;" style="rounded=0;whiteSpace=wrap;html=1;labelBackgroundColor=#FFFFFF;fontSize=15;fontColor=#000000;strokeColor=none;fillColor=#FFFFFF;align=left;" vertex="1" parent="1">
                    <mxGeometry x="50" y="180" width="170" height="20" as="geometry"/>
                </mxCell>
                <mxCell id="25" value="" style="endArrow=none;html=1;fontSize=15;fontColor=#FFFFFF;startArrow=none;" edge="1" parent="1" source="26">
                    <mxGeometry width="50" height="50" relative="1" as="geometry">
                        <mxPoint x="75" y="230" as="sourcePoint"/>
                        <mxPoint x="335" y="230" as="targetPoint"/>
                        <Array as="points">
                            <mxPoint x="200" y="230"/>
                            <mxPoint x="385" y="230"/>
                        </Array>
                    </mxGeometry>
                </mxCell>
                <mxCell id="26" value="" style="ellipse;whiteSpace=wrap;html=1;labelBackgroundColor=#7637A6;fontSize=15;fontColor=#FFFFFF;strokeColor=#7637A6;fillColor=#A54FE7;" vertex="1" parent="1">
                    <mxGeometry x="130" y="220" width="20" height="20" as="geometry"/>
                </mxCell>
                <mxCell id="27" value="" style="endArrow=none;html=1;fontSize=15;fontColor=#FFFFFF;" edge="1" parent="1" target="26">
                    <mxGeometry width="50" height="50" relative="1" as="geometry">
                        <mxPoint x="75" y="230" as="sourcePoint"/>
                        <mxPoint x="335" y="230" as="targetPoint"/>
                        <Array as="points"/>
                    </mxGeometry>
                </mxCell>
                <mxCell id="28" value="&lt;font color=&quot;#ffffff&quot;&gt;&lt;span style=&quot;background-color: rgb(102 , 178 , 255)&quot;&gt;SHOW VALUE&lt;/span&gt;&lt;/font&gt;" style="rounded=1;whiteSpace=wrap;html=1;labelBackgroundColor=#FFFFFF;fontSize=10;fontColor=#000000;strokeColor=#66B2FF;fillColor=#66B2FF;" vertex="1" parent="1">
                    <mxGeometry x="61" y="250" width="100" height="40" as="geometry"/>
                </mxCell>
            </root>
        </mxGraphModel>
    </diagram>
</mxfile>